<?xml version="1.0" encoding="utf-8" standalone="no"?>
<!DOCTYPE svg PUBLIC "-//W3C//DTD SVG 1.1//EN"
  "http://www.w3.org/Graphics/SVG/1.1/DTD/svg11.dtd">
<svg xmlns:xlink="http://www.w3.org/1999/xlink" width="567.215781pt" height="249.027875pt" viewBox="0 0 567.215781 249.027875" xmlns="http://www.w3.org/2000/svg" version="1.1">
 <metadata>
  <rdf:RDF xmlns:dc="http://purl.org/dc/elements/1.1/" xmlns:cc="http://creativecommons.org/ns#" xmlns:rdf="http://www.w3.org/1999/02/22-rdf-syntax-ns#">
   <cc:Work>
    <dc:type rdf:resource="http://purl.org/dc/dcmitype/StillImage"/>
    <dc:date>2026-03-01T12:29:01.592087</dc:date>
    <dc:format>image/svg+xml</dc:format>
    <dc:creator>
     <cc:Agent>
      <dc:title>Matplotlib v3.9.4, https://matplotlib.org/</dc:title>
     </cc:Agent>
    </dc:creator>
   </cc:Work>
  </rdf:RDF>
 </metadata>
 <defs>
  <style type="text/css">*{stroke-linejoin: round; stroke-linecap: butt}</style>
 </defs>
 <g id="figure_1">
  <g id="patch_1">
   <path d="M 0 249.027875 
L 567.215781 249.027875 
L 567.215781 0 
L 0 0 
z
" style="fill: #0d1117"/>
  </g>
  <g id="axes_1">
   <g id="patch_2">
    <path d="M 87.045781 209.419125 
L 560.015781 209.419125 
L 560.015781 43.635125 
L 87.045781 43.635125 
z
" style="fill: #0d1117"/>
   </g>
   <g id="matplotlib.axis_1">
    <g id="xtick_1">
     <g id="line2d_1">
      <path d="M 87.045781 209.419125 
L 87.045781 43.635125 
" clip-path="url(#pb75e8a5470)" style="fill: none; stroke: #21262d; stroke-width: 0.5; stroke-linecap: square"/>
     </g>
     <g id="line2d_2">
      <defs>
       <path id="mb73deadaec" d="M 0 0 
L 0 3.5 
" style="stroke: #c9d1d9; stroke-width: 0.8"/>
      </defs>
      <g>
       <use xlink:href="#mb73deadaec" x="87.045781" y="209.419125" style="fill: #c9d1d9; stroke: #c9d1d9; stroke-width: 0.8"/>
      </g>
     </g>
     <g id="text_1">
      <!-- 0 -->
      <g style="fill: #c9d1d9" transform="translate(83.734609 224.835844) scale(0.11 -0.11)">
       <defs>
        <path id="DejaVuSansMono-30" d="M 1509 2344 
Q 1509 2516 1629 2641 
Q 1750 2766 1919 2766 
Q 2094 2766 2219 2641 
Q 2344 2516 2344 2344 
Q 2344 2169 2220 2047 
Q 2097 1925 1919 1925 
Q 1744 1925 1626 2044 
Q 1509 2163 1509 2344 
z
M 1925 4250 
Q 1484 4250 1267 3775 
Q 1050 3300 1050 2328 
Q 1050 1359 1267 884 
Q 1484 409 1925 409 
Q 2369 409 2586 884 
Q 2803 1359 2803 2328 
Q 2803 3300 2586 3775 
Q 2369 4250 1925 4250 
z
M 1925 4750 
Q 2672 4750 3055 4137 
Q 3438 3525 3438 2328 
Q 3438 1134 3055 521 
Q 2672 -91 1925 -91 
Q 1178 -91 797 521 
Q 416 1134 416 2328 
Q 416 3525 797 4137 
Q 1178 4750 1925 4750 
z
" transform="scale(0.015625)"/>
       </defs>
       <use xlink:href="#DejaVuSansMono-30"/>
      </g>
     </g>
    </g>
    <g id="xtick_2">
     <g id="line2d_3">
      <path d="M 186.942788 209.419125 
L 186.942788 43.635125 
" clip-path="url(#pb75e8a5470)" style="fill: none; stroke: #21262d; stroke-width: 0.5; stroke-linecap: square"/>
     </g>
     <g id="line2d_4">
      <g>
       <use xlink:href="#mb73deadaec" x="186.942788" y="209.419125" style="fill: #c9d1d9; stroke: #c9d1d9; stroke-width: 0.8"/>
      </g>
     </g>
     <g id="text_2">
      <!-- 2 -->
      <g style="fill: #c9d1d9" transform="translate(183.631616 224.835844) scale(0.11 -0.11)">
       <defs>
        <path id="DejaVuSansMono-32" d="M 1166 531 
L 3309 531 
L 3309 0 
L 475 0 
L 475 531 
Q 1059 1147 1496 1619 
Q 1934 2091 2100 2284 
Q 2413 2666 2522 2902 
Q 2631 3138 2631 3384 
Q 2631 3775 2401 3997 
Q 2172 4219 1772 4219 
Q 1488 4219 1175 4116 
Q 863 4013 513 3803 
L 513 4441 
Q 834 4594 1145 4672 
Q 1456 4750 1759 4750 
Q 2444 4750 2861 4386 
Q 3278 4022 3278 3431 
Q 3278 3131 3139 2831 
Q 3000 2531 2688 2169 
Q 2513 1966 2180 1606 
Q 1847 1247 1166 531 
z
" transform="scale(0.015625)"/>
       </defs>
       <use xlink:href="#DejaVuSansMono-32"/>
      </g>
     </g>
    </g>
    <g id="xtick_3">
     <g id="line2d_5">
      <path d="M 286.839794 209.419125 
L 286.839794 43.635125 
" clip-path="url(#pb75e8a5470)" style="fill: none; stroke: #21262d; stroke-width: 0.5; stroke-linecap: square"/>
     </g>
     <g id="line2d_6">
      <g>
       <use xlink:href="#mb73deadaec" x="286.839794" y="209.419125" style="fill: #c9d1d9; stroke: #c9d1d9; stroke-width: 0.8"/>
      </g>
     </g>
     <g id="text_3">
      <!-- 4 -->
      <g style="fill: #c9d1d9" transform="translate(283.528622 224.835844) scale(0.11 -0.11)">
       <defs>
        <path id="DejaVuSansMono-34" d="M 2297 4091 
L 825 1625 
L 2297 1625 
L 2297 4091 
z
M 2194 4666 
L 2925 4666 
L 2925 1625 
L 3547 1625 
L 3547 1113 
L 2925 1113 
L 2925 0 
L 2297 0 
L 2297 1113 
L 319 1113 
L 319 1709 
L 2194 4666 
z
" transform="scale(0.015625)"/>
       </defs>
       <use xlink:href="#DejaVuSansMono-34"/>
      </g>
     </g>
    </g>
    <g id="xtick_4">
     <g id="line2d_7">
      <path d="M 386.736801 209.419125 
L 386.736801 43.635125 
" clip-path="url(#pb75e8a5470)" style="fill: none; stroke: #21262d; stroke-width: 0.5; stroke-linecap: square"/>
     </g>
     <g id="line2d_8">
      <g>
       <use xlink:href="#mb73deadaec" x="386.736801" y="209.419125" style="fill: #c9d1d9; stroke: #c9d1d9; stroke-width: 0.8"/>
      </g>
     </g>
     <g id="text_4">
      <!-- 6 -->
      <g style="fill: #c9d1d9" transform="translate(383.425629 224.835844) scale(0.11 -0.11)">
       <defs>
        <path id="DejaVuSansMono-36" d="M 3097 4563 
L 3097 3981 
Q 2900 4097 2678 4158 
Q 2456 4219 2216 4219 
Q 1616 4219 1306 3767 
Q 997 3316 997 2438 
Q 1147 2750 1412 2917 
Q 1678 3084 2022 3084 
Q 2697 3084 3067 2670 
Q 3438 2256 3438 1497 
Q 3438 741 3056 325 
Q 2675 -91 1984 -91 
Q 1172 -91 794 492 
Q 416 1075 416 2328 
Q 416 3509 870 4129 
Q 1325 4750 2188 4750 
Q 2419 4750 2650 4701 
Q 2881 4653 3097 4563 
z
M 1972 2591 
Q 1569 2591 1337 2300 
Q 1106 2009 1106 1497 
Q 1106 984 1337 693 
Q 1569 403 1972 403 
Q 2391 403 2603 679 
Q 2816 956 2816 1497 
Q 2816 2041 2603 2316 
Q 2391 2591 1972 2591 
z
" transform="scale(0.015625)"/>
       </defs>
       <use xlink:href="#DejaVuSansMono-36"/>
      </g>
     </g>
    </g>
    <g id="xtick_5">
     <g id="line2d_9">
      <path d="M 486.633807 209.419125 
L 486.633807 43.635125 
" clip-path="url(#pb75e8a5470)" style="fill: none; stroke: #21262d; stroke-width: 0.5; stroke-linecap: square"/>
     </g>
     <g id="line2d_10">
      <g>
       <use xlink:href="#mb73deadaec" x="486.633807" y="209.419125" style="fill: #c9d1d9; stroke: #c9d1d9; stroke-width: 0.8"/>
      </g>
     </g>
     <g id="text_5">
      <!-- 8 -->
      <g style="fill: #c9d1d9" transform="translate(483.322635 224.835844) scale(0.11 -0.11)">
       <defs>
        <path id="DejaVuSansMono-38" d="M 1925 2216 
Q 1503 2216 1273 1980 
Q 1044 1744 1044 1313 
Q 1044 881 1276 642 
Q 1509 403 1925 403 
Q 2350 403 2579 639 
Q 2809 875 2809 1313 
Q 2809 1741 2576 1978 
Q 2344 2216 1925 2216 
z
M 1375 2478 
Q 972 2581 745 2862 
Q 519 3144 519 3541 
Q 519 4097 897 4423 
Q 1275 4750 1925 4750 
Q 2578 4750 2956 4423 
Q 3334 4097 3334 3541 
Q 3334 3144 3107 2862 
Q 2881 2581 2478 2478 
Q 2947 2375 3195 2062 
Q 3444 1750 3444 1253 
Q 3444 622 3041 265 
Q 2638 -91 1925 -91 
Q 1213 -91 811 264 
Q 409 619 409 1247 
Q 409 1747 657 2061 
Q 906 2375 1375 2478 
z
M 1147 3481 
Q 1147 3106 1347 2909 
Q 1547 2713 1925 2713 
Q 2306 2713 2506 2909 
Q 2706 3106 2706 3481 
Q 2706 3863 2507 4063 
Q 2309 4263 1925 4263 
Q 1547 4263 1347 4061 
Q 1147 3859 1147 3481 
z
" transform="scale(0.015625)"/>
       </defs>
       <use xlink:href="#DejaVuSansMono-38"/>
      </g>
     </g>
    </g>
    <g id="text_6">
     <!-- Time (ms) — lower is better -->
     <g style="fill: #c9d1d9" transform="translate(234.129141 239.540219) scale(0.11 -0.11)">
      <defs>
       <path id="DejaVuSansMono-54" d="M 147 4666 
L 3706 4666 
L 3706 4134 
L 2247 4134 
L 2247 0 
L 1613 0 
L 1613 4134 
L 147 4134 
L 147 4666 
z
" transform="scale(0.015625)"/>
       <path id="DejaVuSansMono-69" d="M 800 3500 
L 2272 3500 
L 2272 447 
L 3413 447 
L 3413 0 
L 556 0 
L 556 447 
L 1697 447 
L 1697 3053 
L 800 3053 
L 800 3500 
z
M 1697 4863 
L 2272 4863 
L 2272 4134 
L 1697 4134 
L 1697 4863 
z
" transform="scale(0.015625)"/>
       <path id="DejaVuSansMono-6d" d="M 2113 3144 
Q 2219 3369 2383 3476 
Q 2547 3584 2778 3584 
Q 3200 3584 3373 3257 
Q 3547 2931 3547 2028 
L 3547 0 
L 3022 0 
L 3022 2003 
Q 3022 2744 2939 2923 
Q 2856 3103 2638 3103 
Q 2388 3103 2295 2911 
Q 2203 2719 2203 2003 
L 2203 0 
L 1678 0 
L 1678 2003 
Q 1678 2753 1589 2928 
Q 1500 3103 1269 3103 
Q 1041 3103 952 2911 
Q 863 2719 863 2003 
L 863 0 
L 341 0 
L 341 3500 
L 863 3500 
L 863 3200 
Q 966 3388 1120 3486 
Q 1275 3584 1472 3584 
Q 1709 3584 1867 3475 
Q 2025 3366 2113 3144 
z
" transform="scale(0.015625)"/>
       <path id="DejaVuSansMono-65" d="M 3475 1894 
L 3475 1613 
L 984 1613 
L 984 1594 
Q 984 1022 1282 709 
Q 1581 397 2125 397 
Q 2400 397 2700 484 
Q 3000 572 3341 750 
L 3341 178 
Q 3013 44 2708 -23 
Q 2403 -91 2119 -91 
Q 1303 -91 843 398 
Q 384 888 384 1747 
Q 384 2584 834 3084 
Q 1284 3584 2034 3584 
Q 2703 3584 3089 3131 
Q 3475 2678 3475 1894 
z
M 2900 2063 
Q 2888 2569 2661 2833 
Q 2434 3097 2009 3097 
Q 1594 3097 1325 2822 
Q 1056 2547 1006 2059 
L 2900 2063 
z
" transform="scale(0.015625)"/>
       <path id="DejaVuSansMono-20" transform="scale(0.015625)"/>
       <path id="DejaVuSansMono-28" d="M 2766 4856 
Q 2350 4144 2145 3436 
Q 1941 2728 1941 2009 
Q 1941 1294 2145 584 
Q 2350 -125 2766 -844 
L 2266 -844 
Q 1794 -100 1562 604 
Q 1331 1309 1331 2009 
Q 1331 2706 1562 3412 
Q 1794 4119 2266 4856 
L 2766 4856 
z
" transform="scale(0.015625)"/>
       <path id="DejaVuSansMono-73" d="M 3041 3378 
L 3041 2816 
Q 2794 2959 2544 3031 
Q 2294 3103 2034 3103 
Q 1644 3103 1451 2976 
Q 1259 2850 1259 2591 
Q 1259 2356 1403 2240 
Q 1547 2125 2119 2016 
L 2350 1972 
Q 2778 1891 2998 1647 
Q 3219 1403 3219 1013 
Q 3219 494 2850 201 
Q 2481 -91 1825 -91 
Q 1566 -91 1281 -36 
Q 997 19 666 128 
L 666 722 
Q 988 556 1281 473 
Q 1575 391 1838 391 
Q 2219 391 2428 545 
Q 2638 700 2638 978 
Q 2638 1378 1872 1531 
L 1847 1538 
L 1631 1581 
Q 1134 1678 906 1908 
Q 678 2138 678 2534 
Q 678 3038 1018 3311 
Q 1359 3584 1991 3584 
Q 2272 3584 2531 3532 
Q 2791 3481 3041 3378 
z
" transform="scale(0.015625)"/>
       <path id="DejaVuSansMono-29" d="M 1088 4856 
L 1588 4856 
Q 2059 4119 2290 3412 
Q 2522 2706 2522 2009 
Q 2522 1306 2290 600 
Q 2059 -106 1588 -844 
L 1088 -844 
Q 1503 -119 1708 590 
Q 1913 1300 1913 2009 
Q 1913 2722 1708 3431 
Q 1503 4141 1088 4856 
z
" transform="scale(0.015625)"/>
       <path id="DejaVuSansMono-2014" d="M 0 1978 
L 3853 1978 
L 3853 1538 
L 0 1538 
L 0 1978 
z
" transform="scale(0.015625)"/>
       <path id="DejaVuSansMono-6c" d="M 1997 1269 
Q 1997 881 2139 684 
Q 2281 488 2559 488 
L 3231 488 
L 3231 0 
L 2503 0 
Q 1988 0 1705 331 
Q 1422 663 1422 1269 
L 1422 4447 
L 500 4447 
L 500 4897 
L 1997 4897 
L 1997 1269 
z
" transform="scale(0.015625)"/>
       <path id="DejaVuSansMono-6f" d="M 1925 3097 
Q 1488 3097 1263 2756 
Q 1038 2416 1038 1747 
Q 1038 1081 1263 739 
Q 1488 397 1925 397 
Q 2366 397 2591 739 
Q 2816 1081 2816 1747 
Q 2816 2416 2591 2756 
Q 2366 3097 1925 3097 
z
M 1925 3584 
Q 2653 3584 3039 3112 
Q 3425 2641 3425 1747 
Q 3425 850 3040 379 
Q 2656 -91 1925 -91 
Q 1197 -91 812 379 
Q 428 850 428 1747 
Q 428 2641 812 3112 
Q 1197 3584 1925 3584 
z
" transform="scale(0.015625)"/>
       <path id="DejaVuSansMono-77" d="M 0 3500 
L 569 3500 
L 1178 672 
L 1678 2478 
L 2169 2478 
L 2675 672 
L 3284 3500 
L 3853 3500 
L 3034 0 
L 2484 0 
L 1925 1919 
L 1369 0 
L 819 0 
L 0 3500 
z
" transform="scale(0.015625)"/>
       <path id="DejaVuSansMono-72" d="M 3609 2778 
Q 3425 2922 3234 2987 
Q 3044 3053 2816 3053 
Q 2278 3053 1993 2715 
Q 1709 2378 1709 1741 
L 1709 0 
L 1131 0 
L 1131 3500 
L 1709 3500 
L 1709 2816 
Q 1853 3188 2151 3386 
Q 2450 3584 2859 3584 
Q 3072 3584 3256 3531 
Q 3441 3478 3609 3366 
L 3609 2778 
z
" transform="scale(0.015625)"/>
       <path id="DejaVuSansMono-62" d="M 2869 1747 
Q 2869 2416 2656 2756 
Q 2444 3097 2028 3097 
Q 1609 3097 1393 2755 
Q 1178 2413 1178 1747 
Q 1178 1084 1393 740 
Q 1609 397 2028 397 
Q 2444 397 2656 737 
Q 2869 1078 2869 1747 
z
M 1178 3053 
Q 1316 3309 1558 3446 
Q 1800 3584 2119 3584 
Q 2750 3584 3112 3098 
Q 3475 2613 3475 1759 
Q 3475 894 3111 401 
Q 2747 -91 2113 -91 
Q 1800 -91 1561 45 
Q 1322 181 1178 441 
L 1178 0 
L 603 0 
L 603 4863 
L 1178 4863 
L 1178 3053 
z
" transform="scale(0.015625)"/>
       <path id="DejaVuSansMono-74" d="M 1919 4494 
L 1919 3500 
L 3225 3500 
L 3225 3053 
L 1919 3053 
L 1919 1153 
Q 1919 766 2066 612 
Q 2213 459 2578 459 
L 3225 459 
L 3225 0 
L 2522 0 
Q 1875 0 1609 259 
Q 1344 519 1344 1153 
L 1344 3053 
L 409 3053 
L 409 3500 
L 1344 3500 
L 1344 4494 
L 1919 4494 
z
" transform="scale(0.015625)"/>
      </defs>
      <use xlink:href="#DejaVuSansMono-54"/>
      <use xlink:href="#DejaVuSansMono-69" x="60.205078"/>
      <use xlink:href="#DejaVuSansMono-6d" x="120.410156"/>
      <use xlink:href="#DejaVuSansMono-65" x="180.615234"/>
      <use xlink:href="#DejaVuSansMono-20" x="240.820312"/>
      <use xlink:href="#DejaVuSansMono-28" x="301.025391"/>
      <use xlink:href="#DejaVuSansMono-6d" x="361.230469"/>
      <use xlink:href="#DejaVuSansMono-73" x="421.435547"/>
      <use xlink:href="#DejaVuSansMono-29" x="481.640625"/>
      <use xlink:href="#DejaVuSansMono-20" x="541.845703"/>
      <use xlink:href="#DejaVuSansMono-2014" x="602.050781"/>
      <use xlink:href="#DejaVuSansMono-20" x="662.255859"/>
      <use xlink:href="#DejaVuSansMono-6c" x="722.460938"/>
      <use xlink:href="#DejaVuSansMono-6f" x="782.666016"/>
      <use xlink:href="#DejaVuSansMono-77" x="842.871094"/>
      <use xlink:href="#DejaVuSansMono-65" x="903.076172"/>
      <use xlink:href="#DejaVuSansMono-72" x="963.28125"/>
      <use xlink:href="#DejaVuSansMono-20" x="1023.486328"/>
      <use xlink:href="#DejaVuSansMono-69" x="1083.691406"/>
      <use xlink:href="#DejaVuSansMono-73" x="1143.896484"/>
      <use xlink:href="#DejaVuSansMono-20" x="1204.101562"/>
      <use xlink:href="#DejaVuSansMono-62" x="1264.306641"/>
      <use xlink:href="#DejaVuSansMono-65" x="1324.511719"/>
      <use xlink:href="#DejaVuSansMono-74" x="1384.716797"/>
      <use xlink:href="#DejaVuSansMono-74" x="1444.921875"/>
      <use xlink:href="#DejaVuSansMono-65" x="1505.126953"/>
      <use xlink:href="#DejaVuSansMono-72" x="1565.332031"/>
     </g>
    </g>
   </g>
   <g id="matplotlib.axis_2">
    <g id="ytick_1">
     <g id="line2d_11">
      <defs>
       <path id="ma5b6b678f2" d="M 0 0 
L -3.5 0 
" style="stroke: #c9d1d9; stroke-width: 0.8"/>
      </defs>
      <g>
       <use xlink:href="#ma5b6b678f2" x="87.045781" y="65.427371" style="fill: #c9d1d9; stroke: #c9d1d9; stroke-width: 0.8"/>
      </g>
     </g>
     <g id="text_7">
      <!-- Exact match -->
      <g style="fill: #c9d1d9" transform="translate(7.2 69.63573) scale(0.11 -0.11)">
       <defs>
        <path id="DejaVuSansMono-45" d="M 616 4666 
L 3384 4666 
L 3384 4134 
L 1247 4134 
L 1247 2753 
L 3291 2753 
L 3291 2222 
L 1247 2222 
L 1247 531 
L 3444 531 
L 3444 0 
L 616 0 
L 616 4666 
z
" transform="scale(0.015625)"/>
        <path id="DejaVuSansMono-78" d="M 3494 3500 
L 2241 1825 
L 3616 0 
L 2950 0 
L 1925 1403 
L 903 0 
L 238 0 
L 1613 1825 
L 359 3500 
L 997 3500 
L 1925 2234 
L 2847 3500 
L 3494 3500 
z
" transform="scale(0.015625)"/>
        <path id="DejaVuSansMono-61" d="M 2194 1759 
L 2003 1759 
Q 1500 1759 1245 1582 
Q 991 1406 991 1056 
Q 991 741 1181 566 
Q 1372 391 1709 391 
Q 2184 391 2456 720 
Q 2728 1050 2731 1631 
L 2731 1759 
L 2194 1759 
z
M 3309 1997 
L 3309 0 
L 2731 0 
L 2731 519 
Q 2547 206 2267 57 
Q 1988 -91 1588 -91 
Q 1053 -91 734 211 
Q 416 513 416 1019 
Q 416 1603 808 1906 
Q 1200 2209 1959 2209 
L 2731 2209 
L 2731 2300 
Q 2728 2719 2518 2908 
Q 2309 3097 1850 3097 
Q 1556 3097 1256 3012 
Q 956 2928 672 2766 
L 672 3341 
Q 991 3463 1283 3523 
Q 1575 3584 1850 3584 
Q 2284 3584 2592 3456 
Q 2900 3328 3091 3072 
Q 3209 2916 3259 2686 
Q 3309 2456 3309 1997 
z
" transform="scale(0.015625)"/>
        <path id="DejaVuSansMono-63" d="M 3316 178 
Q 3084 44 2839 -23 
Q 2594 -91 2338 -91 
Q 1525 -91 1067 396 
Q 609 884 609 1747 
Q 609 2609 1067 3096 
Q 1525 3584 2338 3584 
Q 2591 3584 2831 3518 
Q 3072 3453 3316 3316 
L 3316 2713 
Q 3088 2916 2858 3006 
Q 2628 3097 2338 3097 
Q 1797 3097 1506 2747 
Q 1216 2397 1216 1747 
Q 1216 1100 1508 748 
Q 1800 397 2338 397 
Q 2638 397 2875 489 
Q 3113 581 3316 775 
L 3316 178 
z
" transform="scale(0.015625)"/>
        <path id="DejaVuSansMono-68" d="M 3284 2169 
L 3284 0 
L 2706 0 
L 2706 2169 
Q 2706 2641 2540 2862 
Q 2375 3084 2022 3084 
Q 1619 3084 1401 2798 
Q 1184 2513 1184 1978 
L 1184 0 
L 609 0 
L 609 4863 
L 1184 4863 
L 1184 2975 
Q 1338 3275 1600 3429 
Q 1863 3584 2222 3584 
Q 2756 3584 3020 3232 
Q 3284 2881 3284 2169 
z
" transform="scale(0.015625)"/>
       </defs>
       <use xlink:href="#DejaVuSansMono-45"/>
       <use xlink:href="#DejaVuSansMono-78" x="60.205078"/>
       <use xlink:href="#DejaVuSansMono-61" x="120.410156"/>
       <use xlink:href="#DejaVuSansMono-63" x="180.615234"/>
       <use xlink:href="#DejaVuSansMono-74" x="240.820312"/>
       <use xlink:href="#DejaVuSansMono-20" x="301.025391"/>
       <use xlink:href="#DejaVuSansMono-6d" x="361.230469"/>
       <use xlink:href="#DejaVuSansMono-61" x="421.435547"/>
       <use xlink:href="#DejaVuSansMono-74" x="481.640625"/>
       <use xlink:href="#DejaVuSansMono-63" x="541.845703"/>
       <use xlink:href="#DejaVuSansMono-68" x="602.050781"/>
      </g>
     </g>
    </g>
    <g id="ytick_2">
     <g id="line2d_12">
      <g>
       <use xlink:href="#ma5b6b678f2" x="87.045781" y="106.16054" style="fill: #c9d1d9; stroke: #c9d1d9; stroke-width: 0.8"/>
      </g>
     </g>
     <g id="text_8">
      <!-- Broad fuzzy -->
      <g style="fill: #c9d1d9" transform="translate(7.2 110.3689) scale(0.11 -0.11)">
       <defs>
        <path id="DejaVuSansMono-42" d="M 1153 2228 
L 1153 519 
L 1900 519 
Q 2450 519 2684 711 
Q 2919 903 2919 1344 
Q 2919 1800 2672 2014 
Q 2425 2228 1900 2228 
L 1153 2228 
z
M 1153 4147 
L 1153 2741 
L 1888 2741 
Q 2344 2741 2548 2916 
Q 2753 3091 2753 3481 
Q 2753 3834 2551 3990 
Q 2350 4147 1888 4147 
L 1153 4147 
z
M 519 4666 
L 1900 4666 
Q 2616 4666 3003 4356 
Q 3391 4047 3391 3481 
Q 3391 3053 3186 2806 
Q 2981 2559 2572 2497 
Q 3031 2428 3292 2104 
Q 3553 1781 3553 1281 
Q 3553 647 3137 323 
Q 2722 0 1900 0 
L 519 0 
L 519 4666 
z
" transform="scale(0.015625)"/>
        <path id="DejaVuSansMono-64" d="M 2681 3053 
L 2681 4863 
L 3256 4863 
L 3256 0 
L 2681 0 
L 2681 441 
Q 2538 181 2298 45 
Q 2059 -91 1747 -91 
Q 1113 -91 748 401 
Q 384 894 384 1759 
Q 384 2613 750 3098 
Q 1116 3584 1747 3584 
Q 2063 3584 2303 3448 
Q 2544 3313 2681 3053 
z
M 991 1747 
Q 991 1078 1203 737 
Q 1416 397 1831 397 
Q 2247 397 2464 740 
Q 2681 1084 2681 1747 
Q 2681 2413 2464 2755 
Q 2247 3097 1831 3097 
Q 1416 3097 1203 2756 
Q 991 2416 991 1747 
z
" transform="scale(0.015625)"/>
        <path id="DejaVuSansMono-66" d="M 3322 4863 
L 3322 4384 
L 2669 4384 
Q 2359 4384 2239 4257 
Q 2119 4131 2119 3809 
L 2119 3500 
L 3322 3500 
L 3322 3053 
L 2119 3053 
L 2119 0 
L 1544 0 
L 1544 3053 
L 609 3053 
L 609 3500 
L 1544 3500 
L 1544 3744 
Q 1544 4319 1808 4591 
Q 2072 4863 2631 4863 
L 3322 4863 
z
" transform="scale(0.015625)"/>
        <path id="DejaVuSansMono-75" d="M 609 1325 
L 609 3494 
L 1184 3494 
L 1184 1325 
Q 1184 853 1351 631 
Q 1519 409 1869 409 
Q 2275 409 2490 695 
Q 2706 981 2706 1516 
L 2706 3494 
L 3284 3494 
L 3284 0 
L 2706 0 
L 2706 525 
Q 2553 222 2289 65 
Q 2025 -91 1672 -91 
Q 1134 -91 871 261 
Q 609 613 609 1325 
z
" transform="scale(0.015625)"/>
        <path id="DejaVuSansMono-7a" d="M 709 3506 
L 3250 3506 
L 3250 2981 
L 1241 469 
L 3250 469 
L 3250 0 
L 634 0 
L 634 531 
L 2644 3047 
L 709 3047 
L 709 3506 
z
" transform="scale(0.015625)"/>
        <path id="DejaVuSansMono-79" d="M 2681 1125 
Q 2538 759 2316 163 
Q 2006 -663 1900 -844 
Q 1756 -1088 1540 -1209 
Q 1325 -1331 1038 -1331 
L 575 -1331 
L 575 -850 
L 916 -850 
Q 1169 -850 1312 -703 
Q 1456 -556 1678 56 
L 325 3500 
L 934 3500 
L 1972 763 
L 2994 3500 
L 3603 3500 
L 2681 1125 
z
" transform="scale(0.015625)"/>
       </defs>
       <use xlink:href="#DejaVuSansMono-42"/>
       <use xlink:href="#DejaVuSansMono-72" x="60.205078"/>
       <use xlink:href="#DejaVuSansMono-6f" x="120.410156"/>
       <use xlink:href="#DejaVuSansMono-61" x="180.615234"/>
       <use xlink:href="#DejaVuSansMono-64" x="240.820312"/>
       <use xlink:href="#DejaVuSansMono-20" x="301.025391"/>
       <use xlink:href="#DejaVuSansMono-66" x="361.230469"/>
       <use xlink:href="#DejaVuSansMono-75" x="421.435547"/>
       <use xlink:href="#DejaVuSansMono-7a" x="481.640625"/>
       <use xlink:href="#DejaVuSansMono-7a" x="541.845703"/>
       <use xlink:href="#DejaVuSansMono-79" x="602.050781"/>
      </g>
     </g>
    </g>
    <g id="ytick_3">
     <g id="line2d_13">
      <g>
       <use xlink:href="#ma5b6b678f2" x="87.045781" y="146.89371" style="fill: #c9d1d9; stroke: #c9d1d9; stroke-width: 0.8"/>
      </g>
     </g>
     <g id="text_9">
      <!-- Multi-token -->
      <g style="fill: #c9d1d9" transform="translate(7.2 151.102069) scale(0.11 -0.11)">
       <defs>
        <path id="DejaVuSansMono-4d" d="M 269 4666 
L 1113 4666 
L 1919 2291 
L 2731 4666 
L 3578 4666 
L 3578 0 
L 2994 0 
L 2994 4122 
L 2163 1663 
L 1684 1663 
L 850 4122 
L 850 0 
L 269 0 
L 269 4666 
z
" transform="scale(0.015625)"/>
        <path id="DejaVuSansMono-2d" d="M 1113 2009 
L 2741 2009 
L 2741 1497 
L 1113 1497 
L 1113 2009 
z
" transform="scale(0.015625)"/>
        <path id="DejaVuSansMono-6b" d="M 738 4863 
L 1331 4863 
L 1331 2047 
L 2841 3500 
L 3541 3500 
L 2163 2181 
L 3756 0 
L 3053 0 
L 1759 1806 
L 1331 1403 
L 1331 0 
L 738 0 
L 738 4863 
z
" transform="scale(0.015625)"/>
        <path id="DejaVuSansMono-6e" d="M 3284 2169 
L 3284 0 
L 2706 0 
L 2706 2169 
Q 2706 2641 2540 2862 
Q 2375 3084 2022 3084 
Q 1619 3084 1401 2798 
Q 1184 2513 1184 1978 
L 1184 0 
L 609 0 
L 609 3500 
L 1184 3500 
L 1184 2975 
Q 1338 3275 1600 3429 
Q 1863 3584 2222 3584 
Q 2756 3584 3020 3232 
Q 3284 2881 3284 2169 
z
" transform="scale(0.015625)"/>
       </defs>
       <use xlink:href="#DejaVuSansMono-4d"/>
       <use xlink:href="#DejaVuSansMono-75" x="60.205078"/>
       <use xlink:href="#DejaVuSansMono-6c" x="120.410156"/>
       <use xlink:href="#DejaVuSansMono-74" x="180.615234"/>
       <use xlink:href="#DejaVuSansMono-69" x="240.820312"/>
       <use xlink:href="#DejaVuSansMono-2d" x="301.025391"/>
       <use xlink:href="#DejaVuSansMono-74" x="361.230469"/>
       <use xlink:href="#DejaVuSansMono-6f" x="421.435547"/>
       <use xlink:href="#DejaVuSansMono-6b" x="481.640625"/>
       <use xlink:href="#DejaVuSansMono-65" x="541.845703"/>
       <use xlink:href="#DejaVuSansMono-6e" x="602.050781"/>
      </g>
     </g>
    </g>
    <g id="ytick_4">
     <g id="line2d_14">
      <g>
       <use xlink:href="#ma5b6b678f2" x="87.045781" y="187.626879" style="fill: #c9d1d9; stroke: #c9d1d9; stroke-width: 0.8"/>
      </g>
     </g>
     <g id="text_10">
      <!-- Add (write) -->
      <g style="fill: #c9d1d9" transform="translate(7.2 191.835239) scale(0.11 -0.11)">
       <defs>
        <path id="DejaVuSansMono-41" d="M 1925 4109 
L 1259 1722 
L 2591 1722 
L 1925 4109 
z
M 1544 4666 
L 2309 4666 
L 3738 0 
L 3084 0 
L 2741 1216 
L 1106 1216 
L 769 0 
L 116 0 
L 1544 4666 
z
" transform="scale(0.015625)"/>
       </defs>
       <use xlink:href="#DejaVuSansMono-41"/>
       <use xlink:href="#DejaVuSansMono-64" x="60.205078"/>
       <use xlink:href="#DejaVuSansMono-64" x="120.410156"/>
       <use xlink:href="#DejaVuSansMono-20" x="180.615234"/>
       <use xlink:href="#DejaVuSansMono-28" x="240.820312"/>
       <use xlink:href="#DejaVuSansMono-77" x="301.025391"/>
       <use xlink:href="#DejaVuSansMono-72" x="361.230469"/>
       <use xlink:href="#DejaVuSansMono-69" x="421.435547"/>
       <use xlink:href="#DejaVuSansMono-74" x="481.640625"/>
       <use xlink:href="#DejaVuSansMono-65" x="541.845703"/>
       <use xlink:href="#DejaVuSansMono-29" x="602.050781"/>
      </g>
     </g>
    </g>
   </g>
   <g id="patch_3">
    <path d="M 87.045781 65.427371 
L 423.414024 65.427371 
L 423.414024 79.68398 
L 87.045781 79.68398 
z
" clip-path="url(#pb75e8a5470)" style="fill: #6c8ebf"/>
   </g>
   <g id="patch_4">
    <path d="M 87.045781 106.16054 
L 437.393929 106.16054 
L 437.393929 120.41715 
L 87.045781 120.41715 
z
" clip-path="url(#pb75e8a5470)" style="fill: #6c8ebf"/>
   </g>
   <g id="patch_5">
    <path d="M 87.045781 146.89371 
L 433.745454 146.89371 
L 433.745454 161.150319 
L 87.045781 161.150319 
z
" clip-path="url(#pb75e8a5470)" style="fill: #6c8ebf"/>
   </g>
   <g id="patch_6">
    <path d="M 87.045781 187.626879 
L 426.343724 187.626879 
L 426.343724 201.883489 
L 87.045781 201.883489 
z
" clip-path="url(#pb75e8a5470)" style="fill: #6c8ebf"/>
   </g>
   <g id="patch_7">
    <path d="M 87.045781 51.170761 
L 208.140508 51.170761 
L 208.140508 65.427371 
L 87.045781 65.427371 
z
" clip-path="url(#pb75e8a5470)" style="fill: #d4a03c"/>
   </g>
   <g id="patch_8">
    <path d="M 87.045781 91.903931 
L 209.946269 91.903931 
L 209.946269 106.16054 
L 87.045781 106.16054 
z
" clip-path="url(#pb75e8a5470)" style="fill: #d4a03c"/>
   </g>
   <g id="patch_9">
    <path d="M 87.045781 132.6371 
L 199.966918 132.6371 
L 199.966918 146.89371 
L 87.045781 146.89371 
z
" clip-path="url(#pb75e8a5470)" style="fill: #d4a03c"/>
   </g>
   <g id="patch_10">
    <path d="M 87.045781 173.37027 
L 216.617252 173.37027 
L 216.617252 187.626879 
L 87.045781 187.626879 
z
" clip-path="url(#pb75e8a5470)" style="fill: #d4a03c"/>
   </g>
   <g id="LineCollection_1">
    <path d="M 394.207043 72.555675 
L 452.621006 72.555675 
" clip-path="url(#pb75e8a5470)" style="fill: none; stroke: #8aa8cf"/>
    <path d="M 401.721647 113.288845 
L 473.066212 113.288845 
" clip-path="url(#pb75e8a5470)" style="fill: none; stroke: #8aa8cf"/>
    <path d="M 396.999073 154.022014 
L 470.491835 154.022014 
" clip-path="url(#pb75e8a5470)" style="fill: none; stroke: #8aa8cf"/>
    <path d="M 389.701445 194.755184 
L 462.986004 194.755184 
" clip-path="url(#pb75e8a5470)" style="fill: none; stroke: #8aa8cf"/>
   </g>
   <g id="line2d_15">
    <defs>
     <path id="ma330741d30" d="M 0 3 
L 0 -3 
" style="stroke: #8aa8cf"/>
    </defs>
    <g clip-path="url(#pb75e8a5470)">
     <use xlink:href="#ma330741d30" x="394.207043" y="72.555675" style="fill: #8aa8cf; stroke: #8aa8cf"/>
     <use xlink:href="#ma330741d30" x="401.721647" y="113.288845" style="fill: #8aa8cf; stroke: #8aa8cf"/>
     <use xlink:href="#ma330741d30" x="396.999073" y="154.022014" style="fill: #8aa8cf; stroke: #8aa8cf"/>
     <use xlink:href="#ma330741d30" x="389.701445" y="194.755184" style="fill: #8aa8cf; stroke: #8aa8cf"/>
    </g>
   </g>
   <g id="line2d_16">
    <g clip-path="url(#pb75e8a5470)">
     <use xlink:href="#ma330741d30" x="452.621006" y="72.555675" style="fill: #8aa8cf; stroke: #8aa8cf"/>
     <use xlink:href="#ma330741d30" x="473.066212" y="113.288845" style="fill: #8aa8cf; stroke: #8aa8cf"/>
     <use xlink:href="#ma330741d30" x="470.491835" y="154.022014" style="fill: #8aa8cf; stroke: #8aa8cf"/>
     <use xlink:href="#ma330741d30" x="462.986004" y="194.755184" style="fill: #8aa8cf; stroke: #8aa8cf"/>
    </g>
   </g>
   <g id="LineCollection_2">
    <path d="M 193.773745 58.299066 
L 222.507272 58.299066 
" clip-path="url(#pb75e8a5470)" style="fill: none; stroke: #e0be6a"/>
    <path d="M 197.312124 99.032236 
L 222.580415 99.032236 
" clip-path="url(#pb75e8a5470)" style="fill: none; stroke: #e0be6a"/>
    <path d="M 187.737107 139.765405 
L 212.196728 139.765405 
" clip-path="url(#pb75e8a5470)" style="fill: none; stroke: #e0be6a"/>
    <path d="M 203.644472 180.498575 
L 229.590032 180.498575 
" clip-path="url(#pb75e8a5470)" style="fill: none; stroke: #e0be6a"/>
   </g>
   <g id="line2d_17">
    <defs>
     <path id="m3fde22bba0" d="M 0 3 
L 0 -3 
" style="stroke: #e0be6a"/>
    </defs>
    <g clip-path="url(#pb75e8a5470)">
     <use xlink:href="#m3fde22bba0" x="193.773745" y="58.299066" style="fill: #e0be6a; stroke: #e0be6a"/>
     <use xlink:href="#m3fde22bba0" x="197.312124" y="99.032236" style="fill: #e0be6a; stroke: #e0be6a"/>
     <use xlink:href="#m3fde22bba0" x="187.737107" y="139.765405" style="fill: #e0be6a; stroke: #e0be6a"/>
     <use xlink:href="#m3fde22bba0" x="203.644472" y="180.498575" style="fill: #e0be6a; stroke: #e0be6a"/>
    </g>
   </g>
   <g id="line2d_18">
    <g clip-path="url(#pb75e8a5470)">
     <use xlink:href="#m3fde22bba0" x="222.507272" y="58.299066" style="fill: #e0be6a; stroke: #e0be6a"/>
     <use xlink:href="#m3fde22bba0" x="222.580415" y="99.032236" style="fill: #e0be6a; stroke: #e0be6a"/>
     <use xlink:href="#m3fde22bba0" x="212.196728" y="139.765405" style="fill: #e0be6a; stroke: #e0be6a"/>
     <use xlink:href="#m3fde22bba0" x="229.590032" y="180.498575" style="fill: #e0be6a; stroke: #e0be6a"/>
    </g>
   </g>
   <g id="patch_11">
    <path d="M 87.045781 209.419125 
L 87.045781 43.635125 
" style="fill: none; stroke: #21262d; stroke-width: 0.8; stroke-linejoin: miter; stroke-linecap: square"/>
   </g>
   <g id="patch_12">
    <path d="M 560.015781 209.419125 
L 560.015781 43.635125 
" style="fill: none; stroke: #21262d; stroke-width: 0.8; stroke-linejoin: miter; stroke-linecap: square"/>
   </g>
   <g id="patch_13">
    <path d="M 87.045781 209.419125 
L 560.015781 209.419125 
" style="fill: none; stroke: #21262d; stroke-width: 0.8; stroke-linejoin: miter; stroke-linecap: square"/>
   </g>
   <g id="patch_14">
    <path d="M 87.045781 43.635125 
L 560.015781 43.635125 
" style="fill: none; stroke: #21262d; stroke-width: 0.8; stroke-linejoin: miter; stroke-linecap: square"/>
   </g>
   <g id="text_11">
    <!-- 6.7ms -->
    <g style="fill: #8aa8cf" transform="translate(438.398575 75.063019) scale(0.09 -0.09)">
     <defs>
      <path id="DejaVuSansMono-2e" d="M 1528 953 
L 2316 953 
L 2316 0 
L 1528 0 
L 1528 953 
z
" transform="scale(0.015625)"/>
      <path id="DejaVuSansMono-37" d="M 434 4666 
L 3372 4666 
L 3372 4397 
L 1703 0 
L 1044 0 
L 2669 4134 
L 434 4134 
L 434 4666 
z
" transform="scale(0.015625)"/>
     </defs>
     <use xlink:href="#DejaVuSansMono-36"/>
     <use xlink:href="#DejaVuSansMono-2e" x="60.205078"/>
     <use xlink:href="#DejaVuSansMono-37" x="120.410156"/>
     <use xlink:href="#DejaVuSansMono-6d" x="180.615234"/>
     <use xlink:href="#DejaVuSansMono-73" x="240.820312"/>
    </g>
   </g>
   <g id="text_12">
    <!-- 7.0ms -->
    <g style="fill: #8aa8cf" transform="translate(452.37848 115.796189) scale(0.09 -0.09)">
     <use xlink:href="#DejaVuSansMono-37"/>
     <use xlink:href="#DejaVuSansMono-2e" x="60.205078"/>
     <use xlink:href="#DejaVuSansMono-30" x="120.410156"/>
     <use xlink:href="#DejaVuSansMono-6d" x="180.615234"/>
     <use xlink:href="#DejaVuSansMono-73" x="240.820312"/>
    </g>
   </g>
   <g id="text_13">
    <!-- 6.9ms -->
    <g style="fill: #8aa8cf" transform="translate(448.730005 156.529358) scale(0.09 -0.09)">
     <defs>
      <path id="DejaVuSansMono-39" d="M 1863 2069 
Q 2266 2069 2495 2359 
Q 2725 2650 2725 3163 
Q 2725 3675 2495 3965 
Q 2266 4256 1863 4256 
Q 1444 4256 1231 3979 
Q 1019 3703 1019 3163 
Q 1019 2619 1230 2344 
Q 1441 2069 1863 2069 
z
M 738 97 
L 738 678 
Q 934 563 1156 502 
Q 1378 441 1619 441 
Q 2219 441 2526 892 
Q 2834 1344 2834 2222 
Q 2688 1909 2422 1742 
Q 2156 1575 1813 1575 
Q 1138 1575 767 1990 
Q 397 2406 397 3169 
Q 397 3922 776 4336 
Q 1156 4750 1850 4750 
Q 2663 4750 3041 4165 
Q 3419 3581 3419 2328 
Q 3419 1150 2964 529 
Q 2509 -91 1644 -91 
Q 1416 -91 1184 -42 
Q 953 6 738 97 
z
" transform="scale(0.015625)"/>
     </defs>
     <use xlink:href="#DejaVuSansMono-36"/>
     <use xlink:href="#DejaVuSansMono-2e" x="60.205078"/>
     <use xlink:href="#DejaVuSansMono-39" x="120.410156"/>
     <use xlink:href="#DejaVuSansMono-6d" x="180.615234"/>
     <use xlink:href="#DejaVuSansMono-73" x="240.820312"/>
    </g>
   </g>
   <g id="text_14">
    <!-- 6.8ms -->
    <g style="fill: #8aa8cf" transform="translate(441.328275 197.262528) scale(0.09 -0.09)">
     <use xlink:href="#DejaVuSansMono-36"/>
     <use xlink:href="#DejaVuSansMono-2e" x="60.205078"/>
     <use xlink:href="#DejaVuSansMono-38" x="120.410156"/>
     <use xlink:href="#DejaVuSansMono-6d" x="180.615234"/>
     <use xlink:href="#DejaVuSansMono-73" x="240.820312"/>
    </g>
   </g>
   <g id="text_15">
    <!-- 2.4ms -->
    <g style="fill: #e0be6a" transform="translate(223.125059 60.80641) scale(0.09 -0.09)">
     <use xlink:href="#DejaVuSansMono-32"/>
     <use xlink:href="#DejaVuSansMono-2e" x="60.205078"/>
     <use xlink:href="#DejaVuSansMono-34" x="120.410156"/>
     <use xlink:href="#DejaVuSansMono-6d" x="180.615234"/>
     <use xlink:href="#DejaVuSansMono-73" x="240.820312"/>
    </g>
   </g>
   <g id="text_16">
    <!-- 2.5ms -->
    <g style="fill: #e0be6a" transform="translate(224.93082 101.539579) scale(0.09 -0.09)">
     <defs>
      <path id="DejaVuSansMono-35" d="M 647 4666 
L 3009 4666 
L 3009 4134 
L 1222 4134 
L 1222 2988 
Q 1356 3038 1492 3061 
Q 1628 3084 1766 3084 
Q 2491 3084 2916 2656 
Q 3341 2228 3341 1497 
Q 3341 759 2895 334 
Q 2450 -91 1678 -91 
Q 1306 -91 998 -41 
Q 691 9 447 109 
L 447 750 
Q 734 594 1025 517 
Q 1316 441 1619 441 
Q 2141 441 2423 716 
Q 2706 991 2706 1497 
Q 2706 1997 2414 2275 
Q 2122 2553 1600 2553 
Q 1347 2553 1106 2495 
Q 866 2438 647 2322 
L 647 4666 
z
" transform="scale(0.015625)"/>
     </defs>
     <use xlink:href="#DejaVuSansMono-32"/>
     <use xlink:href="#DejaVuSansMono-2e" x="60.205078"/>
     <use xlink:href="#DejaVuSansMono-35" x="120.410156"/>
     <use xlink:href="#DejaVuSansMono-6d" x="180.615234"/>
     <use xlink:href="#DejaVuSansMono-73" x="240.820312"/>
    </g>
   </g>
   <g id="text_17">
    <!-- 2.3ms -->
    <g style="fill: #e0be6a" transform="translate(214.951469 142.272749) scale(0.09 -0.09)">
     <defs>
      <path id="DejaVuSansMono-33" d="M 2425 2497 
Q 2884 2375 3128 2064 
Q 3372 1753 3372 1288 
Q 3372 644 2939 276 
Q 2506 -91 1741 -91 
Q 1419 -91 1084 -31 
Q 750 28 428 141 
L 428 769 
Q 747 603 1056 522 
Q 1366 441 1672 441 
Q 2191 441 2469 675 
Q 2747 909 2747 1350 
Q 2747 1756 2469 1995 
Q 2191 2234 1716 2234 
L 1234 2234 
L 1234 2753 
L 1716 2753 
Q 2150 2753 2394 2943 
Q 2638 3134 2638 3475 
Q 2638 3834 2411 4026 
Q 2184 4219 1766 4219 
Q 1488 4219 1191 4156 
Q 894 4094 569 3969 
L 569 4550 
Q 947 4650 1242 4700 
Q 1538 4750 1766 4750 
Q 2447 4750 2855 4408 
Q 3263 4066 3263 3500 
Q 3263 3116 3048 2859 
Q 2834 2603 2425 2497 
z
" transform="scale(0.015625)"/>
     </defs>
     <use xlink:href="#DejaVuSansMono-32"/>
     <use xlink:href="#DejaVuSansMono-2e" x="60.205078"/>
     <use xlink:href="#DejaVuSansMono-33" x="120.410156"/>
     <use xlink:href="#DejaVuSansMono-6d" x="180.615234"/>
     <use xlink:href="#DejaVuSansMono-73" x="240.820312"/>
    </g>
   </g>
   <g id="text_18">
    <!-- 2.6ms -->
    <g style="fill: #e0be6a" transform="translate(231.601803 183.005918) scale(0.09 -0.09)">
     <use xlink:href="#DejaVuSansMono-32"/>
     <use xlink:href="#DejaVuSansMono-2e" x="60.205078"/>
     <use xlink:href="#DejaVuSansMono-36" x="120.410156"/>
     <use xlink:href="#DejaVuSansMono-6d" x="180.615234"/>
     <use xlink:href="#DejaVuSansMono-73" x="240.820312"/>
    </g>
   </g>
   <g id="text_19">
    <!-- Core Benchmarks -->
    <g style="fill: #c9d1d9" transform="translate(264.832734 17.077969) scale(0.13 -0.13)">
     <defs>
      <path id="DejaVuSansMono-Bold-43" d="M 3378 134 
Q 3159 22 2918 -34 
Q 2678 -91 2413 -91 
Q 1469 -91 972 531 
Q 475 1153 475 2328 
Q 475 3506 972 4128 
Q 1469 4750 2413 4750 
Q 2678 4750 2922 4694 
Q 3166 4638 3378 4525 
L 3378 3500 
Q 3141 3719 2917 3820 
Q 2694 3922 2456 3922 
Q 1950 3922 1692 3520 
Q 1434 3119 1434 2328 
Q 1434 1541 1692 1139 
Q 1950 738 2456 738 
Q 2694 738 2917 839 
Q 3141 941 3378 1159 
L 3378 134 
z
" transform="scale(0.015625)"/>
      <path id="DejaVuSansMono-Bold-6f" d="M 1925 2841 
Q 1597 2841 1409 2552 
Q 1222 2263 1222 1747 
Q 1222 1231 1409 942 
Q 1597 653 1925 653 
Q 2256 653 2443 942 
Q 2631 1231 2631 1747 
Q 2631 2263 2443 2552 
Q 2256 2841 1925 2841 
z
M 306 1747 
Q 306 2594 745 3089 
Q 1184 3584 1925 3584 
Q 2669 3584 3108 3089 
Q 3547 2594 3547 1747 
Q 3547 900 3108 404 
Q 2669 -91 1925 -91 
Q 1184 -91 745 404 
Q 306 900 306 1747 
z
" transform="scale(0.015625)"/>
      <path id="DejaVuSansMono-Bold-72" d="M 3597 2534 
Q 3447 2672 3245 2740 
Q 3044 2809 2803 2809 
Q 2513 2809 2295 2707 
Q 2078 2606 1959 2413 
Q 1884 2294 1854 2125 
Q 1825 1956 1825 1613 
L 1825 0 
L 909 0 
L 909 3500 
L 1825 3500 
L 1825 2956 
Q 1959 3256 2237 3420 
Q 2516 3584 2888 3584 
Q 3075 3584 3254 3539 
Q 3434 3494 3597 3406 
L 3597 2534 
z
" transform="scale(0.015625)"/>
      <path id="DejaVuSansMono-Bold-65" d="M 3444 172 
Q 3125 41 2794 -25 
Q 2463 -91 2094 -91 
Q 1216 -91 752 379 
Q 288 850 288 1734 
Q 288 2591 734 3087 
Q 1181 3584 1953 3584 
Q 2731 3584 3161 3123 
Q 3591 2663 3591 1825 
L 3591 1453 
L 1219 1453 
Q 1222 1041 1462 837 
Q 1703 634 2181 634 
Q 2497 634 2803 725 
Q 3109 816 3444 1013 
L 3444 172 
z
M 2669 2141 
Q 2663 2503 2483 2689 
Q 2303 2875 1953 2875 
Q 1638 2875 1450 2683 
Q 1263 2491 1228 2138 
L 2669 2141 
z
" transform="scale(0.015625)"/>
      <path id="DejaVuSansMono-Bold-20" transform="scale(0.015625)"/>
      <path id="DejaVuSansMono-Bold-42" d="M 1281 2119 
L 1281 738 
L 1894 738 
Q 2334 738 2511 888 
Q 2688 1038 2688 1409 
Q 2688 1788 2503 1953 
Q 2319 2119 1894 2119 
L 1281 2119 
z
M 1281 3938 
L 1281 2853 
L 1894 2853 
Q 2244 2853 2392 2978 
Q 2541 3103 2541 3391 
Q 2541 3678 2389 3808 
Q 2238 3938 1894 3938 
L 1281 3938 
z
M 391 4672 
L 1894 4672 
Q 2672 4672 3064 4376 
Q 3456 4081 3456 3494 
Q 3456 3044 3225 2791 
Q 2994 2538 2547 2497 
Q 3081 2444 3351 2137 
Q 3622 1831 3622 1281 
Q 3622 606 3215 303 
Q 2809 0 1894 0 
L 391 0 
L 391 4672 
z
" transform="scale(0.015625)"/>
      <path id="DejaVuSansMono-Bold-6e" d="M 3347 2272 
L 3347 0 
L 2438 0 
L 2438 2131 
Q 2438 2513 2330 2677 
Q 2222 2841 1978 2841 
Q 1731 2841 1589 2619 
Q 1447 2397 1447 2003 
L 1447 0 
L 538 0 
L 538 3500 
L 1447 3500 
L 1447 2975 
Q 1544 3266 1778 3425 
Q 2013 3584 2344 3584 
Q 2841 3584 3094 3254 
Q 3347 2925 3347 2272 
z
" transform="scale(0.015625)"/>
      <path id="DejaVuSansMono-Bold-63" d="M 3316 178 
Q 3084 44 2818 -23 
Q 2553 -91 2247 -91 
Q 1438 -91 981 396 
Q 525 884 525 1747 
Q 525 2613 984 3102 
Q 1444 3591 2253 3591 
Q 2534 3591 2795 3525 
Q 3056 3459 3316 3322 
L 3316 2484 
Q 3116 2656 2877 2748 
Q 2638 2841 2381 2841 
Q 1934 2841 1693 2556 
Q 1453 2272 1453 1747 
Q 1453 1222 1693 940 
Q 1934 659 2381 659 
Q 2647 659 2878 748 
Q 3109 838 3316 1019 
L 3316 178 
z
" transform="scale(0.015625)"/>
      <path id="DejaVuSansMono-Bold-68" d="M 3347 2272 
L 3347 0 
L 2438 0 
L 2438 2131 
Q 2438 2509 2330 2671 
Q 2222 2834 1978 2834 
Q 1728 2834 1587 2614 
Q 1447 2394 1447 2003 
L 1447 0 
L 538 0 
L 538 4863 
L 1447 4863 
L 1447 2975 
Q 1544 3266 1778 3425 
Q 2013 3584 2344 3584 
Q 2841 3584 3094 3254 
Q 3347 2925 3347 2272 
z
" transform="scale(0.015625)"/>
      <path id="DejaVuSansMono-Bold-6d" d="M 2156 3150 
Q 2259 3372 2418 3478 
Q 2578 3584 2809 3584 
Q 3263 3584 3436 3271 
Q 3609 2959 3609 1972 
L 3609 0 
L 2859 0 
L 2859 2247 
Q 2859 2638 2800 2769 
Q 2741 2900 2584 2900 
Q 2428 2900 2365 2765 
Q 2303 2631 2303 2247 
L 2303 0 
L 1563 0 
L 1563 2247 
Q 1563 2631 1500 2765 
Q 1438 2900 1281 2900 
Q 1125 2900 1065 2769 
Q 1006 2638 1006 2247 
L 1006 0 
L 256 0 
L 256 3500 
L 922 3500 
L 922 3138 
Q 1000 3344 1172 3464 
Q 1344 3584 1556 3584 
Q 1769 3584 1944 3457 
Q 2119 3331 2156 3150 
z
" transform="scale(0.015625)"/>
      <path id="DejaVuSansMono-Bold-61" d="M 2188 1644 
Q 1675 1644 1472 1512 
Q 1269 1381 1269 1063 
Q 1269 825 1409 684 
Q 1550 544 1791 544 
Q 2153 544 2353 817 
Q 2553 1091 2553 1581 
L 2553 1644 
L 2188 1644 
z
M 3463 1997 
L 3463 0 
L 2553 0 
L 2553 391 
Q 2388 159 2128 34 
Q 1869 -91 1556 -91 
Q 959 -91 626 225 
Q 294 541 294 1106 
Q 294 1719 691 2011 
Q 1088 2303 1919 2303 
L 2553 2303 
L 2553 2456 
Q 2553 2678 2392 2792 
Q 2231 2906 1919 2906 
Q 1591 2906 1283 2823 
Q 975 2741 641 2559 
L 641 3341 
Q 944 3466 1256 3525 
Q 1569 3584 1919 3584 
Q 2772 3584 3117 3237 
Q 3463 2891 3463 1997 
z
" transform="scale(0.015625)"/>
      <path id="DejaVuSansMono-Bold-6b" d="M 544 4863 
L 1459 4863 
L 1459 2309 
L 2559 3500 
L 3669 3500 
L 2344 2194 
L 3744 0 
L 2731 0 
L 1772 1638 
L 1459 1338 
L 1459 0 
L 544 0 
L 544 4863 
z
" transform="scale(0.015625)"/>
      <path id="DejaVuSansMono-Bold-73" d="M 3097 3391 
L 3097 2591 
Q 2844 2753 2570 2836 
Q 2297 2919 2022 2919 
Q 1716 2919 1559 2830 
Q 1403 2741 1403 2566 
Q 1403 2316 2072 2159 
L 2106 2150 
L 2369 2088 
Q 2869 1969 3101 1705 
Q 3334 1441 3334 991 
Q 3334 450 2979 179 
Q 2625 -91 1913 -91 
Q 1597 -91 1265 -36 
Q 934 19 594 128 
L 594 928 
Q 897 756 1211 665 
Q 1525 575 1819 575 
Q 2141 575 2306 669 
Q 2472 763 2472 941 
Q 2472 1116 2355 1209 
Q 2238 1303 1797 1409 
L 1544 1466 
Q 1019 1584 778 1837 
Q 538 2091 538 2516 
Q 538 3022 903 3303 
Q 1269 3584 1931 3584 
Q 2228 3584 2523 3536 
Q 2819 3488 3097 3391 
z
" transform="scale(0.015625)"/>
     </defs>
     <use xlink:href="#DejaVuSansMono-Bold-43"/>
     <use xlink:href="#DejaVuSansMono-Bold-6f" x="60.205078"/>
     <use xlink:href="#DejaVuSansMono-Bold-72" x="120.410156"/>
     <use xlink:href="#DejaVuSansMono-Bold-65" x="180.615234"/>
     <use xlink:href="#DejaVuSansMono-Bold-20" x="240.820312"/>
     <use xlink:href="#DejaVuSansMono-Bold-42" x="301.025391"/>
     <use xlink:href="#DejaVuSansMono-Bold-65" x="361.230469"/>
     <use xlink:href="#DejaVuSansMono-Bold-6e" x="421.435547"/>
     <use xlink:href="#DejaVuSansMono-Bold-63" x="481.640625"/>
     <use xlink:href="#DejaVuSansMono-Bold-68" x="541.845703"/>
     <use xlink:href="#DejaVuSansMono-Bold-6d" x="602.050781"/>
     <use xlink:href="#DejaVuSansMono-Bold-61" x="662.255859"/>
     <use xlink:href="#DejaVuSansMono-Bold-72" x="722.460938"/>
     <use xlink:href="#DejaVuSansMono-Bold-6b" x="782.666016"/>
     <use xlink:href="#DejaVuSansMono-Bold-73" x="842.871094"/>
    </g>
    <!-- 500 entries · 1 visit each · M4 Pro -->
    <g style="fill: #c9d1d9" transform="translate(186.568672 31.635125) scale(0.13 -0.13)">
     <defs>
      <path id="DejaVuSansMono-Bold-35" d="M 603 4666 
L 3138 4666 
L 3138 3853 
L 1350 3853 
L 1350 2988 
Q 1463 3031 1591 3051 
Q 1719 3072 1863 3072 
Q 2556 3072 2987 2634 
Q 3419 2197 3419 1497 
Q 3419 763 2951 336 
Q 2484 -91 1678 -91 
Q 1378 -91 1072 -41 
Q 766 9 447 109 
L 447 941 
Q 706 813 979 748 
Q 1253 684 1528 684 
Q 2016 684 2269 892 
Q 2522 1100 2522 1497 
Q 2522 1863 2270 2083 
Q 2019 2303 1600 2303 
Q 1353 2303 1104 2242 
Q 856 2181 603 2059 
L 603 4666 
z
" transform="scale(0.015625)"/>
      <path id="DejaVuSansMono-Bold-30" d="M 1538 2328 
Q 1538 2494 1650 2606 
Q 1763 2719 1925 2719 
Q 2091 2719 2203 2606 
Q 2316 2494 2316 2328 
Q 2316 2166 2203 2053 
Q 2091 1941 1925 1941 
Q 1763 1941 1650 2052 
Q 1538 2163 1538 2328 
z
M 1925 3969 
Q 1606 3969 1459 3578 
Q 1313 3188 1313 2328 
Q 1313 1472 1459 1081 
Q 1606 691 1925 691 
Q 2247 691 2394 1081 
Q 2541 1472 2541 2328 
Q 2541 3188 2394 3578 
Q 2247 3969 1925 3969 
z
M 384 2328 
Q 384 3541 768 4145 
Q 1153 4750 1925 4750 
Q 2700 4750 3084 4147 
Q 3469 3544 3469 2328 
Q 3469 1116 3084 512 
Q 2700 -91 1925 -91 
Q 1153 -91 768 514 
Q 384 1119 384 2328 
z
" transform="scale(0.015625)"/>
      <path id="DejaVuSansMono-Bold-74" d="M 2156 4494 
L 2156 3500 
L 3353 3500 
L 3353 2797 
L 2156 2797 
L 2156 1141 
Q 2156 906 2270 804 
Q 2384 703 2650 703 
L 3353 703 
L 3353 0 
L 2584 0 
Q 1797 0 1519 251 
Q 1241 503 1241 1184 
L 1241 2797 
L 347 2797 
L 347 3500 
L 1241 3500 
L 1241 4494 
L 2156 4494 
z
" transform="scale(0.015625)"/>
      <path id="DejaVuSansMono-Bold-69" d="M 691 3500 
L 2503 3500 
L 2503 703 
L 3641 703 
L 3641 0 
L 447 0 
L 447 703 
L 1588 703 
L 1588 2797 
L 691 2797 
L 691 3500 
z
M 1588 5203 
L 2503 5203 
L 2503 4134 
L 1588 4134 
L 1588 5203 
z
" transform="scale(0.015625)"/>
      <path id="DejaVuSansMono-Bold-b7" d="M 1403 2797 
L 2444 2797 
L 2444 1656 
L 1403 1656 
L 1403 2797 
z
" transform="scale(0.015625)"/>
      <path id="DejaVuSansMono-Bold-31" d="M 588 813 
L 1619 813 
L 1619 3841 
L 659 3603 
L 659 4434 
L 1625 4666 
L 2516 4666 
L 2516 813 
L 3547 813 
L 3547 0 
L 588 0 
L 588 813 
z
" transform="scale(0.015625)"/>
      <path id="DejaVuSansMono-Bold-76" d="M 3603 3500 
L 2491 0 
L 1363 0 
L 250 3500 
L 1178 3500 
L 1925 769 
L 2675 3500 
L 3603 3500 
z
" transform="scale(0.015625)"/>
      <path id="DejaVuSansMono-Bold-4d" d="M 269 4666 
L 1369 4666 
L 1925 2619 
L 2478 4666 
L 3584 4666 
L 3584 0 
L 2791 0 
L 2791 3738 
L 2297 1697 
L 1563 1697 
L 1063 3738 
L 1063 0 
L 269 0 
L 269 4666 
z
" transform="scale(0.015625)"/>
      <path id="DejaVuSansMono-Bold-34" d="M 2169 3641 
L 991 1797 
L 2169 1797 
L 2169 3641 
z
M 2088 4666 
L 3053 4666 
L 3053 1797 
L 3566 1797 
L 3566 1006 
L 3053 1006 
L 3053 0 
L 2169 0 
L 2169 1006 
L 319 1006 
L 319 1900 
L 2088 4666 
z
" transform="scale(0.015625)"/>
      <path id="DejaVuSansMono-Bold-50" d="M 1428 3891 
L 1428 2522 
L 1806 2522 
Q 2259 2522 2442 2675 
Q 2625 2828 2625 3206 
Q 2625 3584 2442 3737 
Q 2259 3891 1806 3891 
L 1428 3891 
z
M 506 4666 
L 1772 4666 
Q 2738 4666 3161 4322 
Q 3584 3978 3584 3206 
Q 3584 2434 3161 2090 
Q 2738 1747 1772 1747 
L 1428 1747 
L 1428 0 
L 506 0 
L 506 4666 
z
" transform="scale(0.015625)"/>
     </defs>
     <use xlink:href="#DejaVuSansMono-Bold-35"/>
     <use xlink:href="#DejaVuSansMono-Bold-30" x="60.205078"/>
     <use xlink:href="#DejaVuSansMono-Bold-30" x="120.410156"/>
     <use xlink:href="#DejaVuSansMono-Bold-20" x="180.615234"/>
     <use xlink:href="#DejaVuSansMono-Bold-65" x="240.820312"/>
     <use xlink:href="#DejaVuSansMono-Bold-6e" x="301.025391"/>
     <use xlink:href="#DejaVuSansMono-Bold-74" x="361.230469"/>
     <use xlink:href="#DejaVuSansMono-Bold-72" x="421.435547"/>
     <use xlink:href="#DejaVuSansMono-Bold-69" x="481.640625"/>
     <use xlink:href="#DejaVuSansMono-Bold-65" x="541.845703"/>
     <use xlink:href="#DejaVuSansMono-Bold-73" x="602.050781"/>
     <use xlink:href="#DejaVuSansMono-Bold-20" x="662.255859"/>
     <use xlink:href="#DejaVuSansMono-Bold-b7" x="722.460938"/>
     <use xlink:href="#DejaVuSansMono-Bold-20" x="782.666016"/>
     <use xlink:href="#DejaVuSansMono-Bold-31" x="842.871094"/>
     <use xlink:href="#DejaVuSansMono-Bold-20" x="903.076172"/>
     <use xlink:href="#DejaVuSansMono-Bold-76" x="963.28125"/>
     <use xlink:href="#DejaVuSansMono-Bold-69" x="1023.486328"/>
     <use xlink:href="#DejaVuSansMono-Bold-73" x="1083.691406"/>
     <use xlink:href="#DejaVuSansMono-Bold-69" x="1143.896484"/>
     <use xlink:href="#DejaVuSansMono-Bold-74" x="1204.101562"/>
     <use xlink:href="#DejaVuSansMono-Bold-20" x="1264.306641"/>
     <use xlink:href="#DejaVuSansMono-Bold-65" x="1324.511719"/>
     <use xlink:href="#DejaVuSansMono-Bold-61" x="1384.716797"/>
     <use xlink:href="#DejaVuSansMono-Bold-63" x="1444.921875"/>
     <use xlink:href="#DejaVuSansMono-Bold-68" x="1505.126953"/>
     <use xlink:href="#DejaVuSansMono-Bold-20" x="1565.332031"/>
     <use xlink:href="#DejaVuSansMono-Bold-b7" x="1625.537109"/>
     <use xlink:href="#DejaVuSansMono-Bold-20" x="1685.742188"/>
     <use xlink:href="#DejaVuSansMono-Bold-4d" x="1745.947266"/>
     <use xlink:href="#DejaVuSansMono-Bold-34" x="1806.152344"/>
     <use xlink:href="#DejaVuSansMono-Bold-20" x="1866.357422"/>
     <use xlink:href="#DejaVuSansMono-Bold-50" x="1926.5625"/>
     <use xlink:href="#DejaVuSansMono-Bold-72" x="1986.767578"/>
     <use xlink:href="#DejaVuSansMono-Bold-6f" x="2046.972656"/>
    </g>
   </g>
   <g id="legend_1">
    <g id="patch_15">
     <path d="M 486.893906 183.608187 
L 506.893906 183.608187 
L 506.893906 176.608187 
L 486.893906 176.608187 
z
" style="fill: #6c8ebf"/>
    </g>
    <g id="text_20">
     <!-- zoxide -->
     <g style="fill: #c9d1d9" transform="translate(514.893906 183.608187) scale(0.1 -0.1)">
      <use xlink:href="#DejaVuSansMono-7a"/>
      <use xlink:href="#DejaVuSansMono-6f" x="60.205078"/>
      <use xlink:href="#DejaVuSansMono-78" x="120.410156"/>
      <use xlink:href="#DejaVuSansMono-69" x="180.615234"/>
      <use xlink:href="#DejaVuSansMono-64" x="240.820312"/>
      <use xlink:href="#DejaVuSansMono-65" x="301.025391"/>
     </g>
    </g>
    <g id="patch_16">
     <path d="M 486.893906 198.339437 
L 506.893906 198.339437 
L 506.893906 191.339437 
L 486.893906 191.339437 
z
" style="fill: #d4a03c"/>
    </g>
    <g id="text_21">
     <!-- tp -->
     <g style="fill: #c9d1d9" transform="translate(514.893906 198.339437) scale(0.1 -0.1)">
      <defs>
       <path id="DejaVuSansMono-70" d="M 1172 441 
L 1172 -1331 
L 594 -1331 
L 594 3500 
L 1172 3500 
L 1172 3053 
Q 1316 3313 1555 3448 
Q 1794 3584 2106 3584 
Q 2741 3584 3102 3093 
Q 3463 2603 3463 1734 
Q 3463 881 3100 395 
Q 2738 -91 2106 -91 
Q 1788 -91 1548 45 
Q 1309 181 1172 441 
z
M 2859 1747 
Q 2859 2416 2648 2756 
Q 2438 3097 2022 3097 
Q 1603 3097 1387 2755 
Q 1172 2413 1172 1747 
Q 1172 1084 1387 740 
Q 1603 397 2022 397 
Q 2438 397 2648 737 
Q 2859 1078 2859 1747 
z
" transform="scale(0.015625)"/>
      </defs>
      <use xlink:href="#DejaVuSansMono-74"/>
      <use xlink:href="#DejaVuSansMono-70" x="60.205078"/>
     </g>
    </g>
   </g>
  </g>
 </g>
 <defs>
  <clipPath id="pb75e8a5470">
   <rect x="87.045781" y="43.635125" width="472.97" height="165.784"/>
  </clipPath>
 </defs>
</svg>
